<svg xmlns="http://www.w3.org/2000/svg" viewBox="0 0 512 512" role="img" aria-label="League board meeting silhouettes around a table">
  <defs>
    <style>
      .s { fill: #000; }
    </style>
  </defs>
  <rect width="512" height="512" fill="transparent" />
  <g class="s">
    <!-- Round table -->
    <ellipse cx="256" cy="296" rx="182" ry="82" />
    <!-- Notebooks/papers on table -->
    <rect x="158" y="250" width="44" height="18" rx="4" transform="rotate(-6 180 259)" />
    <rect x="306" y="246" width="48" height="18" rx="4" transform="rotate(8 330 255)" />
    <rect x="236" y="280" width="52" height="18" rx="4" transform="rotate(-4 262 289)" />

    <!-- Person 1 (left) -->
    <circle cx="136" cy="136" r="36" />
    <rect x="112" y="172" width="48" height="92" rx="14" />
    <rect x="96" y="236" width="72" height="108" rx="20" />
    <rect x="92" y="326" width="76" height="140" rx="22" />
    <rect x="78" y="198" width="26" height="84" rx="10" transform="rotate(-12 91 240)" />
    <rect x="150" y="202" width="26" height="82" rx="10" transform="rotate(10 163 243)" />

    <!-- Person 2 (upper center-left, pointing) -->
    <circle cx="206" cy="118" r="34" />
    <rect x="184" y="150" width="44" height="84" rx="12" />
    <rect x="170" y="214" width="70" height="92" rx="18" />
    <rect x="160" y="292" width="82" height="142" rx="22" />
    <rect x="124" y="188" width="24" height="86" rx="10" transform="rotate(-18 136 231)" />
    <rect x="214" y="180" width="122" height="22" rx="10" transform="rotate(-4 275 191)" />

    <!-- Person 3 (upper center-right, clipboard) -->
    <circle cx="308" cy="120" r="34" />
    <rect x="286" y="152" width="44" height="84" rx="12" />
    <rect x="272" y="214" width="70" height="92" rx="18" />
    <rect x="266" y="292" width="82" height="142" rx="22" />
    <rect x="338" y="182" width="24" height="92" rx="10" transform="rotate(12 350 228)" />
    <rect x="342" y="210" width="64" height="18" rx="8" transform="rotate(18 374 219)" />

    <!-- Person 4 (right) -->
    <circle cx="380" cy="148" r="36" />
    <rect x="358" y="182" width="48" height="92" rx="14" />
    <rect x="344" y="246" width="72" height="108" rx="20" />
    <rect x="340" y="336" width="76" height="140" rx="22" />
    <rect x="410" y="202" width="26" height="90" rx="10" transform="rotate(14 423 247)" />
    <rect x="334" y="204" width="24" height="82" rx="10" transform="rotate(-14 346 245)" />

    <!-- Person 5 (bottom center, leaning in) -->
    <circle cx="254" cy="178" r="34" />
    <rect x="230" y="212" width="48" height="94" rx="14" />
    <rect x="218" y="282" width="72" height="110" rx="20" />
    <rect x="212" y="366" width="88" height="132" rx="24" />
    <rect x="198" y="230" width="24" height="84" rx="10" transform="rotate(-10 210 272)" />
    <rect x="274" y="232" width="24" height="86" rx="10" transform="rotate(12 286 275)" />
  </g>
</svg>
