<?xml version="1.0" encoding="UTF-8"?>
<svg id="Layer_1" xmlns="http://www.w3.org/2000/svg" version="1.1" viewBox="0 0 2500 2500">
  <!-- Generator: Adobe Illustrator 30.0.0, SVG Export Plug-In . SVG Version: 2.1.1 Build 123)  -->
  <defs>
    <style>
      .st0 {
        fill: #fff;
      }

      .st0, .st1, .st2, .st3, .st4 {
        fill-rule: evenodd;
      }

      .st1 {
        fill: #ac3530;
      }

      .st2 {
        fill: #f7e946;
      }

      .st4 {
        fill: #c2a159;
      }
    </style>
  </defs>
  <path class="st3" d="M785.2,330.3c156.7-32.4,315.2-48.2,474.7-48.2s306.9,15.8,461.7,47.3c137.2,28.8,252.2,64,345.8,105.7-21.3,547-151.1,999.4-390.3,1357.3-78.8,117.7-166,218.8-261.4,304.1-55.6,50.1-106.6,89-153.9,115.9-47.3-26.9-98.3-64.9-153.9-115-96.4-85.3-184.5-187.3-263.3-305-106.6-158.5-191.9-338.4-256.8-539.6-78.8-245.7-124.2-518.2-136.3-817.7,85.3-41.7,196.6-76,333.8-104.8h0Z"/>
  <path class="st1" d="M414.4,423.9c12,331.9,65.8,633.2,159.5,903,71.4,205.8,164.1,386.6,278.1,542.3,84.4,115.9,175.2,213.2,273.5,292,28.7,23.6,58.7,45.6,89.9,65.8l46.3,26.9,9.3-3.7,37.1-23.2,89.9-65.8c97.4-78.8,188.2-176.1,272.6-292,113.1-155.8,204.9-336.6,276.3-542.3,93.6-269.8,145.6-571.1,157.6-903l.9-12-11.1-4.6c-93.6-43.6-212.3-80.7-354.1-111.3-161.3-33.4-321.7-50.1-480.3-50.1s-331,16.7-493.2,51c-142.8,30.6-256.8,66.7-342.1,110.3l-10.2,5.6v11.1h0ZM785.2,330.3c156.7-32.4,315.2-48.2,474.7-48.2s306.9,15.8,461.7,47.3c137.2,28.8,252.2,64,345.8,105.7-21.3,547-151.1,999.4-390.3,1357.3-78.8,117.7-166,218.8-261.4,304.1-55.6,50.1-106.6,89-153.9,115.9-47.3-26.9-98.3-64.9-153.9-115-96.4-85.3-184.5-187.3-263.3-305-106.6-158.5-191.9-338.4-256.8-539.6-78.8-245.7-124.2-518.2-136.3-817.7,85.3-41.7,196.6-76,333.8-104.8h0Z"/>
  <path class="st0" d="M573.8,445.3v-1.9l33.4-11.1v1.9l-4.6,4.6v42.7c0,25-14.8,42.6-43.6,52.8-29.7,10.2-44.5,2.8-44.5-22.2v-43.6l-4.6-.9v-1.9l32.5-11.1v.9l-3.7,5.6v42.7c0,11.1,6.5,14.8,20.4,10.2,13-4.6,19.5-12,19.5-24.1v-42.7l-4.7-1.9h0ZM738,400.8v74.2c0,1.9,1.9,2.8,4.6,1.9v1.9l-30.6,9.3v-2.8l3.7-2.8-7.4-6.5-38.9-31.5v51l4.6.9v1.9l-30.6,8.4v-.9c2.8-.9,4.6-2.8,4.6-4.6v-74.2c0-1.9-1.9-2.8-4.6-1.9v-1.8l38.9-11.1v1.9l-5.6,2.8,39.9,33.4v-43.6c0-.9-.9-1.9-3.7-1.9v-1.9l29.7-8.4v1.9l-4.6,4.6h0ZM812.1,382.2v75.1c0,.9,1.9,1.9,4.6.9v2.8l-33.4,6.5v-1.9c2.8-.9,4.6-1.9,4.6-3.7v-75.1c0-1.9-1.9-2.8-4.6-1.9v-1.9l33.4-6.5v1.9l-4.6,3.7h0ZM953,359l-32.5,82.5,2.8.9v1.9l-33.4,5.6v-1.9l2.8-2.8-33.4-68.6c-.9-2.8-1.9-4.6-2.8-4.6v-1.9l32.4-4.6v1.9l-2.8,1.9,22.2,45.4,21.3-51.9-1.9-.9v-2.8l26.9-3.7v1.9l-1.8,1.8h0ZM1025.4,378.5l29.7-2.8c2.8,0,3.7-.9,4.6-3.7h1.9v24.1l-1.9.9c-.9-2.8-1.9-3.7-4.6-3.7l-29.7,2.8v14.8l51-4.6,3.7-5.6h.9v28.7h-.9l-3.7-3.7-79.7,7.4v-1.9c2.8-.9,4.6-1.9,4.6-3.7v-74.2c0-1.9-1.9-2.8-4.6-2.8v-1.9l79.7-7.4c1.9,0,2.8-1.9,3.7-4.6h.9v27.8h-.9c-.9-2.8-1.9-4.6-3.7-4.6l-51,5.6v13ZM1192.2,386.8l19.5,26.9,4.6,2.8v1.9l-33.4.9v-1.8c2.8-.9,3.7-1.9,3.7-3.7l-19.5-26-15.8.9v26c0,1.9,1.9,2.8,4.6,2.8v2.8h-33.4v-.9l4.6-3.7v-74.2c0-1.9-1.9-2.8-4.6-2.8v-2.8l59.3-.9c22.3-.9,33.4,7.4,33.4,25s-7.4,22.3-23.2,26.9h0ZM1178.3,352.5l-26.9.9v17.6l26.9-.9c8.4,0,12-2.8,12-8.3s-3.7-9.3-12-9.3ZM1321.1,364.6c21.3,2.8,32.5,12.1,32.5,26s-14.9,28.7-44.5,27.8l-30.6-4.6-12.1-3.7-3.7,1.9-.9-.9,11.1-27.8,1.9.9v2.8c0,2.8,3.7,4.6,10.2,7.4,7.4,2.8,14.8,4.6,23.2,5.6,15.8,0,24.1-3.7,24.1-10.2s-3.7-4.6-10.2-5.6l-23.2-3.7c-22.2-2.8-33.4-10.2-33.4-22.2,0-17.6,13-26.9,38.9-26l27.8,3.7,14.9,3.7,3.7-1.9,1.9.9-11.1,21.3-1.9-.9v-.9c0-6.5-11.1-9.3-33.4-10.2-12.1,0-18.5,2.8-18.5,7.4s3.7,5.6,10.2,6.5l23.2,2.8h0ZM1434.2,341.4v75.1c0,1.9,1.9,2.8,4.6,3.7v.9l-33.4-.9v-2.8l4.6-2.8v-74.2l-4.6-2.8v-1.9l33.4,1.9v1.9c-2.8,0-3.7.9-4.6,1.9h0ZM1482.4,369.2h-1.9v-29.7l1.9.9c.9,2.8,1.9,4.6,2.8,4.6l79.7,9.3,2.8-4.6h1.9v28.7h-1.9l-2.8-5.6-27.8-2.8v60.3c0,1.9,1.8,2.8,4.6,3.7v.9l-33.4-2.8v-1.9c2.8,0,4.7-.9,4.7-2.8v-59.3l-27.8-3.7c-.9,0-1.8,1.9-2.7,4.6h0ZM1600.2,361.8v-1.9l35.2,4.6v1.9l-4.6,1.9,18.5,28.7,18.5-24.1-3.7-2.8v-1.8l30.6,4.6v1.9l-3.7,1.9-30.6,39.9v31.5l3.7,2.8v2.8l-32.5-5.6v-.9c2.8,0,4.7-.9,4.7-2.8v-27.8l-30.6-48.2-5.6-6.5ZM1801.4,419.3c9.3-8.3,21.3-12,35.2-12s26,3.7,35.2,12c10.2,7.4,14.8,17.6,14.8,31.5s-4.6,24.1-14.8,32.4c-9.3,7.4-21.3,11.1-35.2,11.1s-26-3.7-35.2-11.1c-10.2-8.3-14.9-18.5-14.9-32.4s4.6-24.1,14.9-31.5ZM1836.6,427.6c-17.6,0-26.9,7.4-26.9,23.2s2.8,13,8.4,17.6c4.6,4.6,11.1,6.5,18.5,6.5,17.6,0,26-8.4,26-24.1s-8.4-23.2-26-23.2h0ZM1920,438.8l82.5,26c1.9,0,2.8-.9,2.8-3.7l1.9.9v27.8l-1.9-.9-2.8-4.6-52.8-16.7v13.9l35.2,11.1,2.8-1.9h2.8v26.9l-2.8-.9-2.8-4.6-35.2-11.1v26c0,1.9,1.9,3.7,4.6,4.6v1.9l-34.3-10.2v-2.8l5.6-.9v-75.1l-5.6-3.7v-1.9h0Z"/>
  <path class="st3" d="M355,631.6c126.1-65.8,267.9-117.7,425.6-155.8,61.2-14.8,114-25,158.5-29.7l72.3,1.9v-13.9l218.8-10.2,229,6.5v169.7l-9.3,6.5v106.6l29.7,4.6,20.4-209.5,42.7-64c143.7,16.7,285.6,50.1,424.6,100.1,99.2,35.2,191,76.9,276.3,125.2,58.4,31.5,100.1,89.9,125.2,174.3,8.3,30.6,14.9,61.2,18.5,93.6,2.8,24.1,2.8,43.6,1.9,57.5l-.9,508.1-.9,15.8-4.6,34.3c-8.4,36.2-24.1,65.8-47.3,90.9-25,25-54.7,38-89,38.9-26.8.9-50.1-5.6-68.6-19.5h-.9l-225.3-150.2v-199.3l13-7.4v-23.2l-19.5-11.1c-62.1-37.1-140-71.4-234.5-102-47.3-15.8-89-26.9-125.2-34.3l-.9-.9h-1.9c-60.3-15.8-127.9-27.8-204.9-34.3l-99.2-6.5-24.1-.9-139.1,7.4-26.9,3.7c-117.8,13.9-230.9,42.6-338.4,86.2-54.7,21.3-97.4,41.7-127.9,61.2l-5.6,3.7v17.6l12,6.5v204.9l-27.8,9.3c-26.9,9.3-92.7,49.1-198.4,120.5-63,41.7-125.2,90.9-187.3,147.4l-17.6,16.7-87.2-27.8.9-226.2,6.5-10.2c4.6-8.3,6.5-25,6.5-50.1l-.9-448.7-13,.9v-232.7c44.5-35.2,119.6-82.5,226.2-140.9l14.8,20.4,3.7-31.5h0Z"/>
  <path class="st0" d="M385.7,654.8l180.8-79.7,35.2,43.6,5.6-59.3,154.8-46.4,28.7,42.6,22.3,214.2v-104.8c0-21.3-2.8-36.2-8.3-44.5v-116.8l119.6-23.2c38-5.6,65.8-5.6,81.6,0,11.1,3.7,24.1,14.9,38,34.3v-50.1l204.9-10.2,177.1,7.4v121.4c-7.4,4.6-10.2,13-8.3,25v134.4l91.8,11.1,22.3-231.8v-2.8l30.6-46.4,77,14.8,76,17.6,17.6,178v-120.5l26.9-51c102.9,25,205.8,60.3,309.7,105.7,62.1,26.9,116.8,54.7,165,82.5s82.5,84.4,103.8,170.6c11.1,43.6,16.7,85.3,17.6,123.3l1.9,508.1c0,19.5-3.7,39.8-12.1,61.2-7.9,20.8-19.5,40-34.3,56.5-35.2,38.1-73.3,44.5-115,17.6l-212.3-143.7v-160.4l4.7-2.8c2.8-2.8,6.5-8.4,9.2-17.6v-84.4l-31.5,18.6-5.6-3.7c-11.1-7.4-41.7-23.2-90.9-47.3-46.3-21.3-106.6-43.6-179.9-65.8l-98.3-26.9c-62.1-16.7-132.6-28.7-211.4-36.1l-102-6.5h-8.3v-112.2l1.9-2.8c3.7-2.8,6.5-12,7.4-26v-216l-35.2,130.7v82.5c-2.8,16.7.9,25,9.3,25v118.7l-127,6.5-2.8-3.7-21.3-28.8v-114c8.4-6.5,12.1-15.8,9.3-26v-73.2l-27.8-107.5c-5.6,35.2-14.8,60.3-28.7,75.1,13,12,21.3,29.7,25,52.8,1.9,13,2.8,33.4,1.9,62.1l.9,34.3c.9,8.4,4.6,14.8,9.3,19.5v113.1c-143.7,1.9-313.4,53.8-509,156.7-4.6,51,0,74.2,13,71.4v162.3c-49.1,19.5-120.5,62.1-214.2,127.9-84.4,60.2-149.3,110.3-192.8,152l-46.4-14.9.9-189.1c12.1-18.5,16.7-42.6,13-73.2v-436.7c.9-28.8-3.7-48.2-13.9-58.4v-170.6l77.9-51.9,106.6-61.2,30.6,40.8,10.2,77.9,17.6-149.3h0Z"/>
  <path class="st1" d="M433.9,1030.3v243.8c.9,37.1-3.7,64.9-13,84.4v130.7c19.5-13.9,61.2-38,125.2-71.4v-135.3c-8.3-10.2-13-33.4-13-71.4v-382c0-37.1,4.6-64,13-79.7v-128.9c-15.8,2.8-60.3,23.2-132.6,59.3l-40.8,359.7-17.6,11.1-38.9-318.9c-26.9,12.1-73.2,40.8-139.1,85.3v145.6c9.3,9.3,13.9,33.4,13.9,73.2v407c0,39.9-4.6,70.5-13.9,90.9v136.3c10.2-12,45.4-39.9,103.8-83.4v-144.6c-9.3-8.4-13.9-32.5-13.9-70.5v-255.9l13.9-10.2,58.4,437.6,23.2-14.9,52.9-486.7,18.5-11.1ZM654.5,1002.5c0,15.8,3.7,26.9,11.1,32.4v89.9l-78.8,36.2v-87.2c6.5-13,10.2-33.4,12-62.1l37.1-428.3,108.5-32.4,39.9,382.9c2.8,29.7,7.4,48.2,14.8,54.7v88.1c-44.5,13-75.1,23.2-91.8,31.5v-84.4c6.5-10.2,9.3-23.2,9.3-38.9l-1.9-27.8-58.4,23.2-1.9,22.2h0ZM708.3,869l-17.6-185.4-13.9,3.7-16.7,199.3,48.2-17.6ZM913.2,608.4v132.6l15.8-2.8c17.6-4.6,28.7-18.6,33.4-41.7,2.8-23.2,2.8-44.5-.9-64-4.6-22.2-15.8-31.5-34.3-27.8l-13.9,3.7ZM1035.6,629.8c0,68.6-13,110.3-38,125.2l-3.7,2.8v13l6.5,1.9c10.2,3.7,18.5,10.2,23.2,19.5,4.6,11.1,6.5,30.6,6.5,57.5v31.5c0,28.7,3.7,47.3,11.1,54.7v85.3l-77,12c-2.8-26.9-4.6-71.4-3.7-134.4,0-34.3-4.6-55.6-13.9-64.9-10.2-10.2-21.3-9.3-33.4,1.9v69.5c0,25,2.8,41.7,9.3,50.1v87.1l-89,23.2v-85.3c6.5-10.2,9.3-28.7,9.3-53.8v-259.6c0-25-2.8-41.7-9.3-50.1v-87.2l117.7-21.3c28.7-2.8,47.3.9,56.5,9.3,18.6,20.4,27.8,57.5,27.8,112.2ZM1285,489.8h-70.5v60.3c0,31.5-5.6,65.8-15.8,102l-8.4,27.8-8.4-27.8c-10.2-35.2-15.8-68.6-15.8-101v-59.3l-83.4,5.6v83.4c5.6,7.4,11.1,22.2,15.8,44.5l50.1,195.6c.9,50.1,0,77.9-.9,82.5-.9,11.1-3.7,20.4-7.4,26.9v83.4l88.1-4.6v-84.4c-6.5-10.2-9.3-26.9-9.3-51.9v-67.7l51-192.8c4.6-17.6,9.2-31.5,14.9-39.9v-82.5h0ZM1321.1,615.8v250.3c0,25-2.8,41.7-9.3,51v84.4l85.3,5.6,101,13v-245.7l-59.3-7.4v79.7c0,31.5-3.7,51-12.1,58.4-4.6,4.6-9.3,7.4-13.9,6.5l-21.3-1.9v-289.3c0-24.1,2.8-40.8,9.3-49.1v-84.4l-89-3.7v81.6c6.5,9.3,9.3,26,9.3,51h0ZM1628.9,631.6l-16.7,181.7,49.1,12.1-19.5-191.9-13-1.9h0ZM1695.7,533.3l39.8,404.2c2.8,33.4,8.4,53.8,14.9,62.1v84.4c-44.5-15.8-75.1-24.1-92.7-26.9v-86.2c6.5-6.5,10.2-16.7,10.2-32.4l-1.9-23.2-56.6-13.9-3.7,26.9c0,15.8,3.7,27.8,11.1,36.2v82.5l-78.8-15.8v-85.3c2.8-4.6,12.1-75.1,26-211.4l23.2-221.6,108.5,20.4h0ZM1805.1,693.7v261.5c0,25-2.8,41.7-9.3,50.1v90.9c4.6.9,27.8,10.2,69.5,26v-85.3c-6.5-12-10.2-31.5-10.2-58.4v-133.5l14,4.6,55.6,297.6,67.7,33.4v-412.6c0-26.9,3.7-44.5,10.2-52.8v-92.7l-72.3-27.8v86.2c6.5,12,10.2,30.6,9.3,55.6v125.2l-16.7-9.3-48.2-276.3-78.8-22.3v85.3c6.5,10.2,9.3,28.7,9.3,54.7h0ZM2248.2,752.1c15.8,17.6,29.7,39.9,41.7,67.7,14.9,38.7,24.5,79.2,28.7,120.5,2.8,30.6,4.6,72.3,4.6,123.3v328.2c0,51.9-.9,89-3.7,112.2-4.6,30.6-13,53.8-25,69.5-9.3,12-20.4,15.8-34.3,13-12.1-3.7-29.7-13.9-52.9-31.5l-169.6-114v-136.3c9.3-6.5,14.9-27.8,15.8-63v-402.4c-.9-36.2-6.5-62.1-15.8-76v-128.9c85.3,39.9,138.1,66.8,159.5,78.8,21.3,12.1,38,25,51,38.9h0ZM2157.4,848.6v511.8l13,9.3c13.9,8.3,24.1,11.1,31.5,6.5,12-5.6,17.6-29.7,17.6-72.3v-322.6c0-32.5-2.8-58.4-8.4-76-6.5-17.6-18.5-32.5-34.3-43.6l-19.5-13h0Z"/>
  <path class="st3" d="M1709.6,967.2l-82.5-13c-11.1-20.4-32.5-32.5-64.9-35.2l-78.8-18.5-80.7-3.7c-28.7,10.2-51,23.2-67.7,38.9-39.9-15.8-80.7-18.5-122.4-8.4-8.3,4.6-20.4,7.4-34.3,8.4l-44.5,2.8c-13-1.9-22.2,1.9-27.8,12l-4.6-4.6-77.9,19.5c-30.6,8.3-49.1,25-56.6,49.1l-19.5,2.8c-28.7,19.5-66.7,53.8-112.2,101.1-2.8,1.9-2.8,4.6-1.9,9.3v10.2c-1.9,2.8-5.6,4.6-10.2,6.5l-12,5.6-13,13-10.2,14.8c-40.8,12.1-76.9,29.7-107.5,53.8l-26.9,17.6c-13,5.6-22.3,11.1-27.8,16.7-4.6,6.5-6.5,21.3-3.7,43.6-13.9,77-.9,140.9,39.9,191.9l13.9,15.8c6.5,5.6,9.3,12.1,7.4,19.5l5.6,34.3c2.8,13.9,8.4,23.2,16.7,28.8,1.9,2.8,1.9,6.5.9,11.1l-4.6,11.1c9.3,23.2,26,55.6,51,95.5-.9,2.8,4.6,4.7,14.8,5.6.9,2.8,2.8,10.2,3.7,22.3l38.9,63c2.8,38,3.7,62.1,1.8,70.5l13,20.4c-6.5,5.6-7.4,21.3-2.8,47.3l-45.4,47.3c-25,27.8-39.9,54.7-46.4,80.7-12,3.3-22.8,9.7-31.5,18.6-13.9,12-23.2,26.8-27.8,45.4-30.6,17.6-44.5,47.3-39.9,87.1,11.1-8.4,21.3-13,29.7-13s12,2.8,23.2,8.3c10.2,5.6,17.6,7.4,22.3,6.5l33.4-9.3,5.6,9.3c8.3-6.5,16.7-9.3,24.1-9.3l26,5.6,29.7-2.8,2.8,12.1c8.4-11.1,18.5-16.7,30.6-15.8l51,1.9c13.9,0,23.2-3.7,28.7-11.1,10.2,6.5,18.5,10.2,25,10.2s15.8-5.6,28.7-15.8c13.9-11.1,25-23.2,33.4-37.1,15.8-26.9,44.5-58.4,86.2-92.7,45.4-36.1,72.3-60.3,80.7-74.2,38,12.1,71.4,18.5,98.3,17.6,47.3-.9,90.9-16.7,130.7-47.3l49.1,29.7c23.2,19.5,35.2,41.7,36.1,64.9,1.9,45.4-6.5,80.7-25,107.6-10.2,13.9-13,24.1-8.4,29.7,8.4,10.2,38.9,15.8,91.8,15.8l67.7-3.7,56.6-9.3,4.6,14.8c8.3-1.9,14.9-6.5,20.4-13.9l44.5-.9c8.3,8.3,13,15.8,13,22.2l21.3-19.5,38-6.5,9.3,1.9,3.7,12.1c11.1-6.5,17.6-16.7,20.4-31.5,3.7-18.5-3.7-35.2-21.3-50.1,0-11.1-4.6-24.1-13.9-38-10.2-17.6-24.1-29.7-41.7-34.3,4.6-12.1,7.4-31.5,8.4-58.4.9-28.8-.9-47.3-4.7-56.6,8.4-8.3,10.2-15.8,7.4-24.1-26-64-64-112.2-113.1-144.6l17.6-23.2c62.1-13.9,114-46.3,155.8-95.5,25.1-22.3,44.5-60.3,60.3-113.1l7.4-14.8,5.6-14.9c5.6-12,7.4-24.1,4.7-38s-8.4-25-17.6-34.3c-21.3-13-38.9-31.5-52.8-56.6-15.8-22.2-36.1-44.5-63-67.7-25.9-22.2-51-39.8-76-52.8v-6.5l-9.3-7.4-13-4.6-34.3,7.4-20.4,1.9c-13.9-6.5-27.8-16.7-40.8-30.6-13.9-13.9-23.2-28.7-27.8-44.5l48.2,22.2,46.3,24.1c21.3-18.5,36.2-29.7,44.5-34.3,25,13,47.3,13.9,66.7,3.7.9-17.6,5.6-41.7,13.9-74.2,8.3-32.4,13-56.5,13.9-74.2-2.8-23.2-16.7-41.7-39.8-55.6-11.1-6.5-33.3-14.9-65.8-25.1h0Z"/>
  <path class="st1" d="M1559.4,1206.4c10.2,16.7,20.4,27.8,31.5,33.4l12.1,6.5c3.7.9,6.5,3.7,7.4,8.3l-31.5-1.9-34.3-8.3c-26.9-10.2-41.7-18.5-45.4-26.9l-12.1-15.8c-5.6-10.2-9.3-20.4-10.2-30.6l26.9,10.2c10.2,6.5,19.5,16.7,28.7,30.6l13,8.4-15.8-26.9c-8.4-13-17.6-23.2-28.8-29.7l-22.2-8.3c11.1-4.6,25.9-1.9,44.5,8.3,13,10.2,25,24.1,36.1,42.7h0Z"/>
  <path class="st2" d="M1259.9,975.6c-37.1-.9-73.2,16.7-107.5,51.9-12,13-37.1,45.4-74.2,98.3l-11.1,13c-4.6,4.6-8.4,6.5-13,3.7l-12-1.9c21.3-26.9,46.4-67.7,76.9-122.4,13.9-17.6,32.5-36.2,57.5-53.8l19.5-8.4,16.7-5.6,27.8-3.7,8.3-1.9c14.8-.9,32.5,3.7,51.9,12.1-5.6,8.4-12,15.8-18.5,20.4l-22.3-1.9h0ZM876.1,1682l4.6-.9c-2.8,17.6-3.7,38-2.8,61.2.9,28.7,4.6,55.6,12,79.7l-47.3,52.9-.9-.9c1.9-8.4,0-28.8-4.6-60.3-5.6-35.2-5.6-71.4,0-108.5l3.7-17.6,5.6-20.4c2.8.9,7.4,3.7,13.9,8.4,6.5,4.6,11.1,6.5,15.8,6.5h0ZM1579.8,1346.4c13,38.9,18.5,71.4,16.7,98.3-2.8,38-18.5,77-48.2,117.7,17.6-27.8,28.7-57.5,35.2-89,8.4-43.6,3.7-87.1-13.9-128.9l10.2,1.9h0ZM1246,1951.8c28.7,8.3,50.1,12,64,12,25,0,55.6-12,93.6-35.2,40.8-25,75.1-58.4,102.9-98.3-25,36.1-58.4,65.8-99.2,89.9-69.6,39.9-140,43.6-211.4,11.1,4.6,5.6,21.3,12.1,50.1,20.4h0ZM889.1,1383.5c-23.2-39.9-44.5-70.5-64.9-90.9,26.9,10.2,51.9,36.2,74.2,77.9,7.4,13.9,14.8,28.7,21.3,46.3l12,29.7c10.2-4.6,23.2-2.8,38.9,4.7,18.5,8.3,31.5,23.2,38.9,42.6-7.6-12.6-18.5-22.8-31.5-29.7-16.7-9.3-35.2-12.1-56.5-9.3-.9-12-12-35.2-32.4-71.4h0ZM1330.4,1337.2c6.5,15.8,13,46.4,19.5,90.9l-19.5-57.5c-8.4-26-17.6-43.6-26.9-51.9-17.6-17.6-52.8-26.9-105.7-27.8l-91.8,3.7c30.6-8.3,63-13,97.4-12,45.4,0,81.6,10.2,106.6,29.7,10.2,7.4,16.7,15.8,20.4,25h0ZM1725.3,1291.7c28.7,13,51,29.7,65.8,49.1,18.5,23.2,47.3,55.6,85.3,97.4l22.3,22.3c4.6,8.3,7.4,17.6,7.4,27.8l-6.5-16.7c-9.2-14.9-20.4-23.2-32.4-26-10.2-18.5-38-54.7-85.3-108.5l-31.5-28.7-25-16.7ZM1734.6,1000.6l13.9,8.4,19.5,12.1c15.8,13.9,20.4,34.3,13.9,61.2l-14.9,41.7c-7.4,23.2-11.1,38-11.1,42.6h-21.3c1.9,2.8,6.5,3.7,13,4.6l17.6,1.9,8.4-46.4,10.2-27.8c4.6-13,7.4-24.1,8.3-34.3.9-28.7-17.6-50.1-57.5-64h0ZM1698.4,1272.3c-11.1,41.7-46.3,57.5-105.7,47.3l48.2-3.7c22.3-5.6,36.2-17.6,41.7-37.1l15.7-6.5ZM1521.4,932l-65.8-13,42.6,13.9,41.7,6.5c25,3.7,39.8,7.4,44.5,12,12,8.4,18.5,15.8,20.4,21.3-.9-11.1-5.6-19.5-13.9-25-4.6-2.8-27.8-7.4-69.5-15.8h0ZM1508.4,1006.2c6.5,4.6,14.9,6.5,24.1,6.5,12.1-.9,22.3-6.5,29.7-17.6-12,8.4-21.3,12-29.7,11.1-12-.9-26.9-6.5-46.4-17.6-20.4-12-35.2-19.5-43.6-21.3l65.8,38.9ZM1627.1,1546.7c9.3-6.5,21.3-10.2,36.1-10.2,24.1.9,49.1,11.1,74.2,32.5l-19.5-9.3c-13-7.4-28.7-13-48.2-16.7l-25,.9-17.6,2.8h0ZM1717.9,1466c13-8.3,26.9-14.8,42.7-18.5,23.2-6.5,42.6-5.6,57.5,2.8-11.1-.9-25.1-.9-41.7,0-23.2,1.9-42.7,7.4-58.4,15.8h0ZM1826.4,1641.2c12-11.1,24.1-38.9,38-82.5-12.1,51-24.1,78.8-38,82.5ZM1870.9,1594.9c3.7-5.6,6.5-17.6,8.3-35.2l7.4-49.1v38.9c-.9,21.3-6.5,36.1-15.7,45.4h0ZM1776.3,1681.1c13.9-9.3,27.8-32.5,43.6-70.5l-13,37.1c-8.3,19.5-18.6,30.6-30.6,33.4ZM1446.3,1171.2l7.4,23.2c3.7,12.1,8.4,21.3,13,28.8,15.8,22.2,43.6,37.1,83.4,43.6-18.5,2.8-37.1,0-56.6-8.3-31.5-13.9-51-40.8-57.5-80.7l-3.7-41.7c-2.8-16.7-6.5-27.8-12.1-33.4,4.6,4.6,9.2,14.8,13.9,30.6l12.1,38h0ZM1388.8,1272.3c-6.5,2.8-17.6.9-32.4-4.6-17.6-7.4-29.7-17.6-36.2-30.6,12.1,13.9,31.5,23.2,59.3,28.7-12.1-8.4-16.7-18.5-13.9-30.6l23.2,37.1h0ZM1317.4,1256.5c0-4.6,1.9-1.9,5.6,8.3l10.2,23.2c-5.6,2.8-13.9.9-26-3.7-13.6-6.3-24.2-17.6-29.7-31.5,9.3,13.9,24.1,23.2,44.5,28.8l-4.6-25ZM1141.2,1176.8c7.4-13,24.1-28.7,49.1-48.2,31.5-23.2,59.3-35.2,84.4-35.2-46.4,16.7-89,47.3-128.9,92.7l-4.6-9.3h0ZM1575.1,1770.1c30.6,4.6,63,16.7,98.3,38,49.1,28.8,77.9,64,87.2,104.8,1.9,8.3-.9,19.5-9.3,31.5-11.1,15.8-27.8,19.5-49.1,9.3,10.2,1.9,20.4-.9,32.5-8.3,13-8.4,18.5-19.5,15.8-32.5-2.8-19.5-20.4-44.5-52.8-75.1-38-36.1-78.8-58.4-122.4-67.7h0ZM1762.4,1959.2c5.6,25,8.4,42.7,9.3,52.8.9,29.7-8.3,48.2-27.8,56.6,7.4-3.7,13-17.6,17.6-41.7,4.6-25,4.6-48.2.9-67.7h0ZM826,1557.8c-1.9,19.5,1.9,38,10.2,55.6,12.1,26.9,34.3,42.7,66.8,47.3-14.8-3.7-29.7-13-45.4-28.8-19.5-20.4-30.6-45.4-31.5-74.1h0Z"/>
  <path class="st1" d="M1117.1,1004.3l-4.6,6.5-27.8,2.8-4.6.9c-.9-1.9-.9-2.8.9-3.7s2.8-2.8,2.8-3.7c17.6-26.9,35.2-40.8,52.9-42.6l5.6.9,5.6-.9c-1.9,4.6-5.6,10.2-12.1,16.7l-13.9,16.7-4.6,6.5h0ZM1100.5,969.1l-38,46.4-23.2,40.8-30.6,4.6-39.9,9.3c.9-14.8,10.2-36.2,26-64.9l-5.6,22.3c-1.9,10.2,0,16.7,6.5,20.4,3.7,1.9,8.4,1.9,13,0l12-1.9c6.5-.9,11.1-5.6,14.8-12.1l8.4-16.7c11.1-15.8,26-31.5,44.5-48.2h12.1s0,0,0,0Z"/>
  <path class="st1" d="M1025.4,985.8l-13,34.3,2.8,3.7h4.6l13.9-28.7c6.5-12.1,13.9-18.5,23.2-19.5-9.9,21.6-23,41.6-38.9,59.3l-16.7.9c-2.8-1.9-2.8-4.6-.9-8.3l2.8-9.3,12-27.8,10.2-4.6ZM1094,1031.2l4.6.9-27.8,52.8-32.5,1.9,16.7-31.5,13.9-27.8,16.7,1.8,8.4,1.9h0ZM960.5,1039.5c-1.9,5.6-1.9,13-.9,22.2-.9,8.4-2.8,14.8-6.5,18.5-10.2,8.3-21.3,19.5-33.4,34.3l-30.6,37.1-2.8,17.6c-10.2.9-20.4-4.6-28.7-18.5h8.3v-6.5c2.8,3.7,5.6,4.6,10.2,3.7l11.1-3.7c13.9-13.9,32.4-38,55.6-74.2l.9-12.1,2.8-11.1c-1.9-.9-1.9-3.7,0-7.4,4.6-2.8,9.2-2.8,13.9,0Z"/>
  <path class="st1" d="M927.1,1053.5c3.7,6.5,3.7,13-.9,21.3l-11.1,18.5-29.7,36.2c-7.4,3.7-13,2.8-16.7-1.9-3.7-2.8-3.7-8.3,0-16.7l6.5.9,7.4,3.7c6.5-1.9,14.8-9.3,24.1-21.3,8.4-13.9,10.2-24.1,7.4-30.6.9-1.9,4.7-5.6,13-10.2h0ZM1029.1,1072.9c.9,1.9.9,3.7-1.9,6.5l-2.8,6.5-34.3,64-14.8,5.6,32.5-62.1c0-1.8-.9-2.8-3.7-1.8l-3.7-3.7c-30.6,0-57.5,19.5-80.7,59.3l-13,26.9-8.3-1.9c0-8.3,3.7-17.6,11.1-26.9l18.5-24.1c15.8-16.7,28.7-28.8,39.9-35.2,5.6-4.6,13-7.4,22.3-9.3l24.1-5.6,14.9,1.9h0Z"/>
  <path class="st1" d="M879.8,1098.9l1.9-4.6,2.8-4.6c.9,1.9,2.8,2.8,4.6,1.9l5.6-2.8,1.9-8.3c.9-4.6,2.8-6.5,5.6-7.4,1.9,4.1,1.9,8.8,0,13-1.9,6.5-6.5,12.1-13,18.5-2.8.9-6.5-.9-9.3-5.6h0ZM942.9,1143.4l-12,28.7c0,2.8-1.9,3.7-5.6,2.8l-6.5-.9c8.4-21.3,26-44.5,53.8-69.5l27.8-16.7,28.7-14.8c-3.7,6.5-14.8,21.3-34.3,44.5l-35.2,43.6-8.4,3.7,4.6-14.8,10.2-21.3c.9-2.8,0-4.6-2.8-6.5-7.4,2.8-13.9,10.2-20.4,21.3h0ZM1056.9,1100.7c-.9,5.6-10.2,19.5-26.9,41.7l-15.8,2.8,17.6-44.5h25,0ZM845.5,1153.6c5.6,2.8,10.2,8.4,13.9,14.8l-22.3-.9-2.8-11.1,11.1-2.8ZM720.3,1573.6c-13.9-10.2-18.5-21.3-13-31.5l6.5,13.9c2.8.9,6.5-.9,9.3-4.6,2.8-2.8,5.6-2.8,8.3,1.9l-11.1,20.4h0ZM735.2,1594.9c-4.6,12.1-5.6,22.3-1.9,31.5l23.2,48.2,5.6-1.9,4.6-4.6,4.6-38.9,8.3-45.4,10.2,5.6-8.4,60.2-3.7,42.7c-13.9,0-21.3-2.8-21.3-8.3l1.9-1.9c-4.6-2.8-11.1-10.2-18.5-22.3l-11.1-29.7c-4.6-13.9-5.6-25-3.7-34.3l9.3-16.7,9.3-15.8,2.8.9,1.9.9-13,29.7h0Z"/>
  <path class="st1" d="M754.6,1579.1c.9-3.7,2.8-5.6,5.6-6.5l-8.3,28.7c-3.7,11.1-4.6,20.4-2.8,27.8,4.6-.9,7.4-3.7,8.3-10.2.9-7.4,2.8-12.1,5.6-13.9.9-10.2,2.8-19.5,7.4-27.8l.9,1.9-14.8,77-7.4-13.9-5.6-15.8c-1.9-2.8-1.9-5.6-.9-10.2,1.9-4.6,1.9-7.4.9-9.3,3.7-1.9,5.6-5.6,4.6-10.2l3.7-10.2,2.8-7.4h0ZM799.1,1607.9c2.8,8.3,11.1,21.3,25,38l-4.6,44.5-27.8-38,7.4-44.5h0ZM791.7,1672.8c8.4,15.8,16.7,27.8,26.9,35.2l-4.6,57.5c-8.4-6.5-14.8-17.6-19.5-33.4-2.8-2.8-3.7-11.1-4.6-26.9s-.9-26.9,1.8-32.5h0Z"/>
  <path class="st4" d="M1726.3,996.9c-17.6-7.4-40.8-13-70.5-17.6l-12.1-2.8-19.5-1.9-18.5.9-2.8-10.2c-1.9-6.5-6.5-11.1-13-14.9l-19.5-8.3-113.1-21.3-36.2-.9c-13,0-24.1,2.8-34.3,9.3l-43.6,28.7c-15.8,11.1-30.6,26-46.4,44.5-39.9,4.6-81.6,24.1-126.1,60.3-41.7,33.4-66.8,63-74.2,88.1l27.8,13,30.6-28.7c24.1-17.6,46.4-26.9,66.7-27.8l-43.6,30.6c-16.7,13.9-28.7,26.9-37.1,38.9,12.1,21.3,19.5,36.1,20.4,42.6,0,2.8-.9,2.8-3.7,1.9-38-31.5-78.8-48.2-121.4-49.1-34.3-.9-62.1,7.4-85.3,25l12,20.4c.9,6.5-.9,9.3-3.7,9.3-12.1-13.9-29.7-22.2-52.9-25l-57.5-4.6c-45.4.9-88.1,13-127.9,34.3l-37.1,22.2c-10.2,6.5-15.8,10.2-18.5,10.2-14.8,1.9-21.3,10.2-20.4,25,.9,14.8,9.3,26,23.2,32.5-4.6,6.5-10.2,10.2-17.6,13-2.8,6.5-3.7,13.9-1.9,20.4,2.8,10.2,13,16.7,28.7,18.5h8.4c2.8,0,4.6.9,4.6,3.7-15.8,12-29.7,17.6-39.9,16.7-.9,7.4,2.8,13.9,13,18.5,10.2,4.6,20.4,6.5,30.6,4.6,5.6.9,7.4,2.8,5.6,6.5-12,12.1-25,18.6-38,19.5l5.6,15.8c17.6,13,33.4,16.7,49.1,12.1l1.9,5.6-11.1,12c-4.6,4.7-9.3,6.5-13.9,6.5l4.6,5.6c15.8,9.3,33.4,11.1,51.9,6.5l1.9,1.9c-.9,4.6-3.7,8.3-9.3,11.1l-12,6.5,13,10.2c5.6,3.7,10.2,5.6,14.8,4.6l11.1.9,10.2,1.9c0,.9-2.8,4.7-9.3,11.1l5.6,6.5,7.4,4.6c13.9,5.6,28.7,2.8,42.6-8.3-1.9,17.6.9,34.3,7.4,51,10.2,24.1,26,39.8,49.1,47.3l15.8,3.7c8.3.9,13.9,1.9,16.7,4.7l-2.8,4.6c-2.8.9-4.6,1.9-3.7,3.7,2.8,8.3,8.3,13,17.6,15.8,13.9-.9,25-5.6,33.4-13.9,6.5-12.1,6.5-22.2.9-32.5-13.9,4.6-22.3,5.6-25,2.8,11.1-8.4,19.5-22.2,26-42.6,8.3,2.8,14.8,8.3,17.6,16.7l1.9,9.3,2.8,5.6c8.3-2.8,16.7-12.1,26-27.8,4.6-21.3,4.6-35.2-1.9-41.7l-11.1,8.3-16.7,3.7c17.6-15.8,25-34.3,24.1-56.5h3.7c3.7,2.8,6.5,7.4,8.3,14.8,2.8,8.4,6.5,13.9,9.3,16.7.9.9,1.9,0,2.8-1.9l.9-2.8c0-8.3-.9-13.9-1.9-17.6-1.9-6.5-5.6-13.9-11.1-23.2h-5.6c-1.9-.9-1.9-1.9-.9-4.6v-7.4c-6.5-18.5-18.5-32.5-35.2-40.8l-22.3-6.5c-10.2-1.9-17.6-1.9-20.4,0l-7.4-18.5-16.7-43.6c-19.5-42.6-41.7-70.5-66.7-82.5l-13-7.4-5.6-4.6c2.8-2.8,5.6-3.7,8.3-2.8l13,4.6c39.9,16.7,73.2,49.1,98.3,96.4.9-23-2.5-46-10.2-67.7l3.7-.9,3.7,2.8,26.9,46.4c2.8-4.6,4.6-12.1,5.6-22.2l3.7-24.1,8.3,1.9,9.3,39.9,38-54.7c4.6-2.8,7.4-3.7,9.3-1.9,1.9.9,1.9,3.7-.9,6.5-19.5,24.1-29.7,51.9-30.6,83.4-1.9,54.7,26.9,106.7,86.2,154.8l-4.6,6.5c-12,5.6-26,3.7-42.6-4.6l-3.7,9.3c-5.6,3.7-7.4,12.1-4.6,26,1.9,13.9,1.9,23.2,0,26.9-14.8,26-30.6,39.9-46.4,41.7-4.6,34.3,3.7,74.1,25,119.6,15.8,33.4,27.8,53.8,37.1,62.1-29.7-15.8-52.8-36.1-69.5-59.3-16.7,5.6-36.2,19.5-59.3,40.8-29.1,27.1-53.3,59.1-71.4,94.6-6.5,12-7.4,26-4.6,41.7,2.8,13.9,8.4,22.2,14.8,25-6.5,2.8-15.8,0-28.7-8.3-9.3,6.5-21.3,18.5-35.2,38-15.8,21.3-27.8,42.7-34.3,63,21.3-5.6,35.2-2.8,41.7,9.3-49.1-.9-82.5,15.8-102,51,26.9-5.6,43.6,3.7,49.1,26.9,12-30.6,37.1-38,75.1-20.4,4.6-13.9,14.8-23.2,30.6-29.7-8.3,13.9-12,27.8-12,41.7,4.6-15.8,19.5-23.2,45.4-23.2s31.5,4.6,38.9,13c7.4,7.4,13,21.3,16.7,42.7,10.2,2.8,19.5-1.9,29.7-15.8,2.8-17.6-1.9-28.8-12.1-35.2,15.8-8.4,30.6-10.2,45.4-5.6-26-25-51-38.9-74.2-39.8,44.5-13.9,81.6-10.2,110.3,9.3-26-42.7-53.8-68.6-84.4-77.9,44.5-2.8,83.4,4.6,117.8,23.2-23.2-38.9-45.4-64.9-67.7-77,52.9,5.6,92.7,17.6,121.5,36.2-17.6-41.7-38.9-67.7-63-77.9l44.5,5.6c21.3,4.6,38,12.1,50.1,22.2-6.5-25-13-43.6-17.6-55.6,12,12,26.9,23.2,46.4,33.4,15.8,9.3,28.7,14.9,38.9,17.6,38,11.1,69.5,14.9,93.6,11.1,22.3-2.8,50.1-13.9,82.5-35.2,26.9-18.5,48.2-36.2,62.1-51.9,10.2-11.1,24.1-29.7,40.8-55.6,6.5-10.2,16.7-37.1,32.5-80.7,7.4-23.2,11.1-38.9,12.1-48.2l6.5-31.5,1.9-4.6c-1.9-3.7-1.9-9.3,0-15.8l1.9-13.9c.9-5.6,1.9-14.9.9-26.9v-29.7c.9-7.4-1.9-10.2-6.5-7.4-8.4,4.6-13,5.6-15.8,3.7l13.9-16.7c19.5-26.9,30.6-59.3,34.3-97.4,4.7-39.9-.9-73.3-16.7-102l-78.8-13.9c-18.5-4.6-40.8-13.9-67.7-27.8l-32.5,1.9-39.8,13c2.8,29.7,3.7,51,2.8,63,.9,5.6-.9,13-3.7,22.3-2.8,10.2-5.6,18.5-10.2,23.2-1.9-1.9-3.7-10.2-4.6-24.1l-2.8-26-9.2-31.5c-6.5-17.6-14.9-28.8-23.2-34.3-42.7-18.5-85.3-27.8-128.9-27.8l-38,2.8-37.1,7.4v-2.8c39.9-31.5,90.9-39,153-22.3v1.9h9.3c-2.8-10.2-2.8-21.3-.9-32.4l13,17.6c3.7,4.6,11.1,11.1,22.3,17.6,12,7.4,22.2,12.1,30.6,13.9l-13-27.8c-4.6-13.9-6.5-24.1-4.6-31.5,17.6,32.5,42.7,46.4,73.2,43.6-14.8-21.3-25-38.9-29.7-51.9-7.4-21.3-9.3-38-4.6-51.9,0,3.7,1.9,9.3,4.6,16.7,5.6,15.8,16.7,32.5,32.5,51.9l26,25c25,23.2,61.2,39.9,108.5,50.1,38,8.3,70.5,12,97.4,11.1,13.9,0,28.8-3.7,44.5-11.1,7.4-2.8,12-5.6,13.9-8.4,6.5-6.5,12.1-16.7,16.7-31.5-9.2,2.8-23.2,5.6-40.8,7.4l-61.2-.9-53.8-13c-25-6.5-41.7-13-51-18.5-13.9-8.4-24.1-21.3-32.5-38.9-4.6-8.3-10.2-24.1-16.7-47.3l-13-42.7c-2.8-7.4-5.6-13-9.2-15.8l-17.6-6.5-16.7-11.1,2.8-1.9c21.3,4.6,43.6,1.9,65.8-9.3l15.8-6.5-1.9,6.5-18.5,18.5c3.7,13,12.1,22.3,24.1,27.8,44.5,11.1,73.3,19.5,87.2,26,36.1,11.1,72.3,26.9,108.5,47.3l42.7-29.7c6.5-1.9,14.8,0,25,4.6,10.2,5.6,18.5,7.4,25,5.6,3.7-8.4,7.4-24.1,11.1-47.3l13.9-44.5c4.6-17.6,3.7-31.5-2.8-43.6-13.9-18.5-33.3-32.4-58.4-41.7h0Z"/>
  <path class="st4" d="M1690.1,1327c11.1-8.4,20.4-21.3,28.8-38,27.8,12.1,59.3,38,94.6,76.9l27.8,36.2c12,17.6,28.7,35.2,51,51.9,14.9,14.9,18.5,33.4,10.2,55.7-2.8-8.4-8.3-16.7-15.8-25.1l-2.8,9.3c10.2,34.3,5.6,68.6-13,101l-6.5-36.1c-.9-1.9-1.9-1.9-2.8-.9-13.9,43.5-25,71.4-35.2,83.4l-.9-32.4c-3.7.9-6.5,3.7-8.4,7.4l-14.8,36.2-22.3,28.7-.9-3.7,1.9-4.6v-26.9c0-8.3-2.8-13.9-7.4-17.6-1.9.9-2.8,2.8-2.8,5.6v5.6c-4.7,26.9-19.5,50.1-44.5,71.4-3.7,3.7-12.1,5.6-24.1,6.5-12.1.9-19.5,3.7-23.2,8.4l-14.9,13.9-16.7,10.2c-12,8.3-23.2,10.2-32.4,5.6-2.8-10.2,1.9-21.3,14.9-35.2.9-3.7.9-6.5-.9-9.3-6.5-3.7-10.2-7.4-11.1-11.1,0-4.7,1.9-10.2,4.6-16.7l6.5-15.8c5.6-6.5,4.6-13-1.9-21.3-8.4-10.2-11.1-17.6-9.3-23.2-.9-5.6,2.8-14.9,9.3-26.9,6.5-11.1,8.3-20.4,5.6-28.7l-4.6-10.2c-1.6-3.1-2-6.8-.9-10.2.9-4.6,3.7-6.5,8.3-6.5h4.6l5.6-.9,26.9-1.9,33.4,12.1c13,5.6,23.2,13,29.7,21.3h2.8c.9-5.6-1.9-11.1-6.5-17.6l-11.1-16.7c-18.5-15.8-33.4-24.1-43.6-26l13.9-17.6c25-27.8,48.2-43.6,70.5-46.4l56.5,3.7.9-3.7-3.7-2.8-29.7-13c-20.4-7.4-47.3-2.8-80.7,13,7.4-10.2,14.9-27.8,21.3-51l-6.5-4.6-28.7,28.7c-12.1,12.1-23.2,20.4-33.4,26,.9-5.6,1.9-9.3,4.6-10.2l.9-9.3c4.6-24.1,5.6-41.7,1.9-52.8l-23.2,40.8c-3.9,4.8-8.6,8.9-13.9,12l-14.9-76c17.6,1.9,34.3,0,49.1-6.5,13.9-5.6,23.2-10.2,27.8-13.9h0ZM1690.1,1824.8c47.3,36.2,71.4,67.7,72.3,95.5-2.8,15.8-10.2,26-24.1,30.6v1.9l12,4.6,12.1,1.9c6.5,23.2,8.4,46.4,4.6,68.6l-8.3,34.3-30.6,10.2,29.7,4.6c13.9,2.8,24.1,6.5,29.7,11.1,12.1,12.1,21.3,26,26,42.7l-13.9,1.9c-6.5.9-11.1,2.8-13.9,5.6-12.1-9.3-26.9-13-45.4-10.2-13.9,3.7-23.2,7.4-29.7,12.1-1.9-1.9-5.6-3.7-12.1-4.6l-13.9-4.6c-15.8-4.6-32.5.9-50.1,14.8-11.1,8.4-15.8,19.5-13,35.2l-41.7,5.6c-21.3.9-33.4-1.9-34.3-6.5-2.8-5.6.9-13.9,11.1-25.1,11.1-12,24.1-21.3,39.8-28.7l-16.7-1.9c-13.9,1.9-29.7,7.4-45.4,17.6,9.3-22.3,26.9-42.6,53.8-60.3,6.5-4.6,22.3-13.9,45.4-26-11.1-6.5-27.8-8.3-49.1-7.4-20.4.9-37.1,3.7-49.1,10.2,1.9-7.4,13.9-21.3,36.1-41.7l38-35.2c-21.3-6.5-53.8,0-95.5,19.5-.9-2.8,4.6-12.1,17.6-27.8,15.8-19.5,33.4-33.4,54.7-43.6-36.1,2.8-71.4,15.8-107.5,38.9,1.9-7.4,7.4-17.6,16.7-29.7,12-15.8,23.2-27.8,35.2-34.3l-20.4,3.7-35.2,13c45.4-41.7,78.8-92.7,100.1-151.1,32.4,1.8,70.4,20.4,115,54.7h0Z"/>
  <path class="st3" d="M1561.2,1375.1h-187.3l-3.7,25.1c-2.8,19.5-11.1,46.3-25,80.7l-16.7-105.7h-202.1l-10.2,113.1,14.8,10.2.9,12.1v3.7c0,21.3-3.7,51-12.1,90l-15.8,83.4-27.8,17.6-18.5,116.8h421.8l33.4-109.4-17.6-13v-6.5l19.5-80.7c6.5-34.3,11.1-67.7,13-100.1.9-4.6,3.7-9.3,10.2-13l13-8.3,10.2-115.9h0Z"/>
  <path class="st0" d="M1546.4,1389.1h-157.6l-2.8,13v-.9c-4.6,32.5-20.4,76-46.4,130.7l-22.3-142.8h-176.1l-8.3,90.9,7.4,4.6c6.5,4.6,8.4,13,7.4,26.9v1.9c0,21.3-3.7,52.8-12.1,93.6l-15.8,82.5c-.9,6.5-9.3,13-23.2,21.3l-5.6,3.7-14.8,92.7h152l6.5-32.5,13.9,32.5h60.3l25-29.7-7.4,29.7h143.7l26-90-8.3-5.6c-6.5-4.6-8.4-12-6.5-22.2l19.5-80.7c8.3-41.7,13-74.2,13-98.3.9-10.2,6.5-18.5,17.6-25l6.5-3.7,8.4-92.7h0Z"/>
  <path class="st1" d="M1529.7,1403.9h-128.9c-5.6,39.9-26,92.7-60.3,159.5h-11.1l-25-159.5h-150.2l-5.6,68.6c11.1,7.4,15.8,20.4,13.9,39.9v.9c0,21.3-3.7,53.8-12,95.5l-16.7,83.4c-.9,10.2-11.1,20.4-29.7,31.5l-10.2,68.6h122.4l13.9-68.6c-9.3-4.7-13.9-10.2-14.8-16.7l2.8-20.4,20.4-105.7h10.2c11.1,71.4,13,141.8,6.5,211.4h47.3c6.5-8.3,23.2-41.7,48.2-98.3l47.3-113.1h10.2c-.9,35.2-6.5,70.5-17.6,106.6-6.5,16.7-14.9,28.7-25.1,36.1l-23.2,68.6h116.8l20.4-68.6c-11.1-8.4-15.8-20.4-13-37.1l19.5-80.7c8.4-41.7,13-74.2,13-96.4.9-15.8,9.2-28.8,24.1-37.1l6.5-68.6h0Z"/>
  <path class="st3" d="M1514,1010.8l27.8,3.7c4.6-1.9,9.3-5.6,13.9-12h2.8c-.9,14.8-7.4,24.1-18.5,26.9l-23.2.9-16.7,10.2-49.1.9c-17.6-8.3-27.8-27.8-32.5-56.5l-13-.9c-6.5.9-13,3.7-17.6,8.4l-1.9-.9c1.9-4.6,6.5-10.2,13-14.8l13-7.4c14.9-2.8,28.8-.9,40.8,5.6l32.4,20.4c8.4,6.5,17.6,12,28.8,15.8h0ZM1712.4,1061.8c-6.5.9-10.2-1.9-12.1-8.3-.9-5.6.9-9.3,3.7-11.1,4.7-.9,9.3,2.8,12.1,10.2l-.9,5.6-2.8,3.7h0ZM1757.8,1052.5c0,2.8-.9,4.6-2.8,7.4-7.4-.9-11.1-4.6-12-12.1,0-5.6,2.8-7.4,8.3-5.6,5.6,1.9,7.4,5.6,6.5,10.2h0Z"/>
  <path class="st0" d="M1443.5,994.1c0,17.6,6.5,29.7,20.4,36.2,13,7.4,25,4.6,36.1-7.4l-21.3-13.9c-12-8.4-24.1-13-35.2-14.9h0Z"/>
  <path class="st3" d="M1459.3,996.9c0,15.8,3.7,25,12.1,26.9,9.3,1.9,14.8-.9,16.7-9.3l-28.8-17.6Z"/>
  <path class="st2" d="M1775.4,2153l6.5,10.2-.9,23.2-2.8,2.8c-6.5-6.5-11.1-10.2-13.9-9.3l-18.5,3.7c-7.4,1.9-13,0-16.7-5.6,1.9-8.4.9-16.7-3.7-23.2,2.8-4.6,11.1-8.3,25-10.2,7.4-1.8,15.7.9,25,8.3h0ZM1707.7,2185.5l-30.6-1.9c-13,6.5-23.2,8.4-29.7,5.6-3.7-4.6-4.6-11.1-3.7-19.5,6.5-14.9,20.4-23.2,43.6-24.1,8.3,0,13.9,2.8,17.6,7.4,7.4,6.5,9.3,15.8,5.6,26l-2.8,6.5ZM1843.1,2163.2l2.8,8.3c.9,3.7,0,6.5-1.9,8.4l-4.6-1.9h-4.6l-12.1,4.6-19.5,1.9c-1.9-.9-1.9-3.7-.9-8.4l-5.6-19.5c-.9-2.8,0-4.7,2.8-5.6l5.6-2.8c17.6-3.7,29.7.9,38,14.9h0ZM914.1,2155.8c9.3,10.2,12,20.4,8.3,30.6l-8.3,5.6-10.2,2.8-47.3.9h-2.8c-2.8-10.2,0-22.2,9.3-36.1l11.1-8.3c4.6-2.8,8.4-3.7,12.1-2.8l21.3,1.9,6.5,5.6h0ZM819.5,2197.5h-15.8l-16.7-6.5-22.2,1.9-1.9-.9c1.9-21.3,13-35.2,33.4-43.6,19.5,1.9,30.6,6.5,33.4,13,4.6,15.8.9,27.8-10.2,36.2h0ZM727.8,2160.4c4.6,6.5,7.4,13.9,7.4,24.1-.9,3.7-5.6,8.3-13,14.8l-31.5-1.9c-13.9-5.6-24.1-7.4-31.5-4.6,2.8-6.5,6.5-11.1,13-15.8v-3.7c21.3-21.3,39.9-25.9,55.6-13ZM1614.1,1575.4l-12,31.5c-3.7,12.1-3.7,23.2-.9,33.4v1.9h-7.4l-6.5-2.8c-.9-9.3-.9-26,.9-50.1,2.8-8.7,8.8-15.9,16.7-20.4,4.6-1.9,7.4,0,9.3,6.5ZM1602,1664.4c-1.9,14.8-2.8,25-1.9,29.7-2.8.9-7.4,0-14.8-3.7-2.8-4.6-3.7-14.8-2.8-30.6l19.5,4.7h0ZM1599.3,1718.2l-4.7,13.9c-1.9,5.6-2.8,10.2-2.8,14.9l-8.4-4.6-7.4-8.3-3.7-15.8c-.9-6.5,0-12,2.8-15.8l24.1,15.8h0Z"/>
  <path class="st3" d="M1911.7,2202.1h-9.3v-38h-13.9v-8.3h38v8.3h-14.8v38h0ZM1975.7,2155.8v46.4h-8.3v-38.9l-9.3,38.9h-9.3l-8.3-38.9v38.9h-9.2v-46.4h14.8l8.3,36.2,7.4-36.2h13.9,0Z"/>
</svg>