<?xml version="1.0" encoding="utf-8"?>
<!-- Svg Vector Icons : http://www.onlinewebfonts.com/icon -->
<!DOCTYPE svg PUBLIC "-//W3C//DTD SVG 1.1//EN" "http://www.w3.org/Graphics/SVG/1.1/DTD/svg11.dtd">
<svg version="1.1" xmlns="http://www.w3.org/2000/svg" xmlns:xlink="http://www.w3.org/1999/xlink" x="0px" y="0px" viewBox="0 0 256 256" enable-background="new 0 0 256 256" xml:space="preserve">
<metadata> Svg Vector Icons : http://www.onlinewebfonts.com/icon </metadata>
<g><g><g><path fill="#000000" d="M28.5,10.7c-8.7,2.1-16.1,9.7-17.9,18.5c-0.8,3.6-0.8,194,0,197.6c1.9,9,9.6,16.8,18.6,18.6c3.6,0.8,194,0.8,197.6,0c9-1.9,16.8-9.6,18.6-18.6c0.8-3.6,0.8-194,0-197.6c-1.9-9-9.6-16.8-18.6-18.6C222.9,9.7,31.9,9.9,28.5,10.7z M227.7,20.9c3.2,1.5,5.5,3.8,7,6.8l1.3,2.7V128v97.5l-1,2.2c-1.5,3.2-3.8,5.5-6.8,7l-2.7,1.3H128H30.5l-2.7-1.3c-3.1-1.5-5.3-3.9-6.8-7l-1-2.2l-0.1-96c-0.1-68.5,0-96.8,0.4-98.5c1.1-4.9,4.5-8.7,9.3-10.4c2.4-0.8,7.4-0.8,99.3-0.7l96.8,0.1L227.7,20.9z"/><path fill="#000000" d="M53.5,87.6c0.1,0.3,6.5,20.9,14.3,45.7L82,178.5h11.8h11.8l14.8-45.1c8.1-24.8,14.9-45.4,15.1-45.7c0.2-0.6-1.4-0.7-10.5-0.7h-10.8l-7.6,26.6c-4.1,14.6-8.6,30.8-9.8,35.9c-1.3,5.1-2.3,9.2-2.4,9.1c0-0.1-0.9-3.7-1.8-7.9c-1-4.3-2.9-12-4.3-17.1c-1.4-5.1-4.7-17-7.3-26.4c-2.6-9.4-4.9-17.8-5.1-18.7l-0.5-1.5H64.4C55.7,87.1,53.3,87.2,53.5,87.6z"/><path fill="#000000" d="M167.9,88c-11.5,1.8-19.3,6.5-23.2,13.8c-7.6,14.6,0.7,30.2,19.9,37.5c10.5,4,14.2,6.3,15.8,9.5c2.6,5.3-0.1,10.8-6.3,12.6c-5.9,1.8-16.9,0.6-25.2-2.8l-4-1.6l-0.5,1.7c-0.2,1-1.2,4.6-2,8.2c-1.8,7.6-2,7,3.9,8.9c6.1,2,10.5,2.8,17.9,3c14,0.5,23.3-2.4,30.4-9.5c5.3-5.2,7.7-10.8,7.7-18.1c0-8.6-3.7-15.9-10.6-21.1c-3.8-2.8-6.7-4.4-14.7-7.6c-7.5-3-10.2-4.4-12.2-6.5c-2.6-2.7-2.8-7-0.4-9.3c3.8-3.5,15.5-3.7,25.1-0.3c2.6,0.9,4.9,1.6,4.9,1.5c0.6-1.3,4.1-15.5,3.9-15.9c-0.2-0.7-6.3-2.7-10.9-3.7C183.8,87.8,171.4,87.4,167.9,88z"/></g></g></g>
</svg>